<?xml version="1.0" encoding="UTF-8"?>
<svg width="620" height="200" version="1.1" viewBox="0 0 164.04 52.917" xmlns="http://www.w3.org/2000/svg" xmlns:xlink="http://www.w3.org/1999/xlink">
 <defs>
  <linearGradient id="linearGradient43220" x1="82.289" x2="82.289" y2="52.917" gradientUnits="userSpaceOnUse">
   <stop style="stop-color:#e8e8e8" offset="0"/>
   <stop style="stop-color:#fbfbfb" offset=".49461"/>
   <stop style="stop-color:#eee" offset="1"/>
  </linearGradient>
 </defs>
 <path d="m1.256 0h161.53c0.69583 0 1.256 0.56018 1.256 1.256v50.405c0 0.69582-0.56017 1.256-1.256 1.256h-161.53c-0.69582 0-1.256-0.56018-1.256-1.256v-50.405c0-0.69582 0.56018-1.256 1.256-1.256z" style="fill:url(#linearGradient43220);paint-order:stroke fill markers;stroke-linecap:square;stroke-width:.26458"/>
 <g transform="matrix(1.0962 0 0 1.0962 -3.0521 -1.8023)" style="fill:#165044">
  <g transform="matrix(.29617 0 0 .29617 -16.806 11.02)" style="fill:#165044">
   <g style="fill:#165044">
    <g transform="translate(-46.916 -31.836)" style="fill:#165044">
     <path transform="scale(.26458)" d="m605.88 97.547-5.1524 8.9258h10.305l5.1543-8.9258zm17.178 0-8.5879 14.877h-17.18l-62.084 107.54 7.5254 13.037 0.85937 1.4883-7.2266 12.52 60.926 105.53h17.18l8.5879 14.877h121.45l8.5898-14.877h17.18l60.723-105.18-8.5879-14.877 8.5898-14.877-60.725-105.18h-17.18l-8.5879-14.877zm128.32 0 5.1523 8.9258h10.307l-5.1523-8.9258zm-131.76 23.803h128.32l64.16 111.13-64.16 111.13h-128.32l-64.158-111.13zm214.81 102.2-5.1543 8.9258 5.1543 8.9258 5.1523-8.9258-3.4356-5.9512zm-302.67 2.3574-3.791 6.5684 4.9492 8.5742 3.793-6.5684zm68.959 132.58 5.1524 8.9258h10.307l-5.1543-8.9258zm155.8 0-5.1543 8.9258h10.309l5.1523-8.9258z" style="-inkscape-stroke:none;color:#000000;fill:#165044;paint-order:markers fill stroke"/>
     <path d="m200.17 20.751-2.142 3.7099 2.142 3.7104h4.284l2.1425-3.7104-2.1425-3.7099z" style="fill:#165044;paint-order:markers fill stroke"/>
     <path d="m157.38 20.751-2.142 3.7099 2.142 3.7104h4.284l2.1425-3.7104-2.1425-3.7099z" style="fill:#165044;paint-order:markers fill stroke"/>
     <path d="m135.58 58.331-2.142 3.7099 2.142 3.7104h4.284l2.1425-3.7104-2.1425-3.7099z" style="fill:#165044;paint-order:markers fill stroke"/>
     <path d="m157.38 94.85-2.142 3.7099 2.142 3.7104h4.284l2.1425-3.7104-2.1425-3.7099z" style="fill:#165044;paint-order:markers fill stroke"/>
     <path d="m200.17 94.85-2.142 3.7099 2.142 3.7104h4.284l2.1425-3.7104-2.1425-3.7099z" style="fill:#165044;paint-order:markers fill stroke"/>
     <path d="m221.56 57.8-2.142 3.7099 2.142 3.7104h4.284l2.1425-3.7104-2.1425-3.7099z" style="fill:#165044;paint-order:markers fill stroke"/>
    </g>
    <g style="stroke-width:.89335" aria-label="FBR">
     <path d="m106.77 22.987v3.3352h16.676v-3.3352zm3.3352 3.3352-3.3352 3.3352v6.6704h3.3352v-5.0028h11.673v-3.3352h-11.673z"/>
     <path d="m125.11 23.021v3.3352h13.341v1.6676h-10.006v-1.6676l-3.3352 3.3352v6.6704h15.008l1.6676-1.6676v-3.3352l-1.6676-1.6676 1.6676-1.6676v-3.3352l-1.6676-1.6676zm3.3352 8.338h10.006v1.6676h-10.006z"/>
     <path d="m143.46 23.021v3.3352h13.341v1.6676l1.6676 1.6676h-11.673v-3.3352l-3.3352 3.3352v6.6704h3.3352v-3.3352h5.9866l3.3352 3.3352h4.7026l-3.3352-3.3352h0.98388l1.6676-1.6676v-6.6704l-1.6676-1.6676z"/>
    </g>
   </g>
  </g>
  <g style="stroke-width:.26458" aria-label="FBR: general purpose library for Scada systems">
   <path d="m43.712 16.665h1.1642v-3.2279h1.5028v-1.0583h-1.5028v-2.0637h1.9156v-1.0583h-3.0797z"/>
   <path d="m47.353 16.665h1.8309c1.1642 0 1.7674-0.61383 1.7674-1.7568v-0.635c0-0.78316-0.24342-1.3335-0.86783-1.5452v-0.02117c0.51858-0.21167 0.75141-0.68791 0.75141-1.4499v-0.29633c0-1.143-0.51858-1.7039-1.7251-1.7039h-1.7568zm1.1642-4.3921v-1.9579h0.56092c0.41275 0 0.59266 0.23283 0.59266 0.762v0.41275c0 0.59266-0.26458 0.78316-0.6985 0.78316zm0 3.3337v-2.2754h0.51858c0.52916 0 0.75142 0.21167 0.75142 0.89958v0.64558c0 0.55033-0.21167 0.73025-0.60325 0.73025z"/>
   <path d="m51.628 16.665h1.1642v-3.175h0.40217c0.52916 0 0.73025 0.22225 0.73025 0.91016v1.3547c0 0.60325 0.04233 0.71966 0.10583 0.91016h1.1853c-0.11642-0.27517-0.127-0.53975-0.127-0.89958v-1.3017c0-0.83608-0.1905-1.3864-0.77258-1.5663v-0.02117c0.51858-0.21167 0.762-0.6985 0.762-1.4605v-0.45508c0-1.143-0.51858-1.7039-1.7251-1.7039h-1.7251zm1.1642-4.2333v-2.1167h0.52916c0.41275 0 0.59266 0.23283 0.59266 0.762v0.5715c0 0.59266-0.26458 0.78316-0.6985 0.78316z"/>
   <path d="m55.946 12.633h1.1218v-1.1218h-1.1218zm0 4.0322h1.1218v-1.1218h-1.1218z"/>
   <path d="m61.28 16.771c1.143 0 1.7357-0.67733 1.7357-1.8627v-2.4236h-1.6827v1.0583h0.58208v1.4499c0 0.52916-0.23283 0.71966-0.60325 0.71966s-0.60325-0.1905-0.60325-0.71966v-4.0534c0-0.52916 0.23283-0.73025 0.60325-0.73025s0.60325 0.20108 0.60325 0.73025v0.70908h1.1007v-0.635c0-1.1853-0.59266-1.8627-1.7357-1.8627s-1.7357 0.67733-1.7357 1.8627v3.8947c0 1.1853 0.59266 1.8627 1.7357 1.8627z"/>
   <path d="m63.767 16.665h3.175v-1.0583h-2.0108v-2.2754h1.5981v-1.0583h-1.5981v-1.9579h2.0108v-1.0583h-3.175z"/>
   <path d="m67.609 16.665h1.0372v-5.4081h0.02117l1.397 5.4081h1.1959v-7.4083h-1.0372v4.4344h-0.021166l-1.1324-4.4344h-1.4605z"/>
   <path d="m72.128 16.665h3.175v-1.0583h-2.0108v-2.2754h1.5981v-1.0583h-1.5981v-1.9579h2.0108v-1.0583h-3.175z"/>
   <path d="m75.97 16.665h1.1642v-3.175h0.40217c0.52916 0 0.73025 0.22225 0.73025 0.91016v1.3547c0 0.60325 0.04233 0.71966 0.10583 0.91016h1.1853c-0.11642-0.27517-0.127-0.53975-0.127-0.89958v-1.3017c0-0.83608-0.1905-1.3864-0.77258-1.5663v-0.02117c0.51858-0.21167 0.762-0.6985 0.762-1.4605v-0.45508c0-1.143-0.51858-1.7039-1.7251-1.7039h-1.7251zm1.1642-4.2333v-2.1167h0.52916c0.41275 0 0.59266 0.23283 0.59266 0.762v0.5715c0 0.59266-0.26458 0.78316-0.6985 0.78316z"/>
   <path d="m79.928 16.665h1.0795l0.21167-1.4499h1.3229v-0.02117l0.21167 1.4711h1.1642l-1.2065-7.4083h-1.5769zm1.4287-2.4553 0.508-3.6618h0.02117l0.51858 3.6618z"/>
   <path d="m84.479 16.665h3.0797v-1.0583h-1.9156v-6.35h-1.1642z"/>
   <path d="m89.813 16.665h1.1642v-3.0162h0.55033c1.1642 0 1.7357-0.64558 1.7357-1.8309v-0.73025c0-1.1853-0.5715-1.8309-1.7357-1.8309h-1.7145zm1.1642-4.0746v-2.2754h0.55033c0.37042 0 0.5715 0.16933 0.5715 0.6985v0.87841c0 0.52916-0.20108 0.6985-0.5715 0.6985z"/>
   <path d="m95.591 16.771c1.143 0 1.7357-0.67733 1.7357-1.8627v-5.6515h-1.1218v5.7361c0 0.52916-0.22225 0.71966-0.59266 0.71966-0.37042 0-0.59266-0.1905-0.59266-0.71966v-5.7361h-1.1642v5.6515c0 1.1853 0.59266 1.8627 1.7357 1.8627z"/>
   <path d="m98.152 16.665h1.1642v-3.175h0.40216c0.52917 0 0.73025 0.22225 0.73025 0.91016v1.3547c0 0.60325 0.0423 0.71966 0.10583 0.91016h1.1853c-0.11642-0.27517-0.127-0.53975-0.127-0.89958v-1.3017c0-0.83608-0.1905-1.3864-0.77258-1.5663v-0.02117c0.51858-0.21167 0.762-0.6985 0.762-1.4605v-0.45508c0-1.143-0.51858-1.7039-1.7251-1.7039h-1.7251zm1.1642-4.2333v-2.1167h0.52916c0.41275 0 0.59266 0.23283 0.59266 0.762v0.5715c0 0.59266-0.26458 0.78316-0.69849 0.78316z"/>
   <path d="m102.42 16.665h1.1642v-3.0162h0.55033c1.1642 0 1.7357-0.64558 1.7357-1.8309v-0.73025c0-1.1853-0.5715-1.8309-1.7357-1.8309h-1.7145zm1.1642-4.0746v-2.2754h0.55033c0.37042 0 0.5715 0.16933 0.5715 0.6985v0.87841c0 0.52916-0.20108 0.6985-0.5715 0.6985z"/>
   <path d="m108.19 16.771c1.143 0 1.7674-0.67733 1.7674-1.8627v-3.8947c0-1.1853-0.62441-1.8627-1.7674-1.8627-1.143 0-1.7674 0.67733-1.7674 1.8627v3.8947c0 1.1853 0.62442 1.8627 1.7674 1.8627zm0-1.0583c-0.37041 0-0.60325-0.20108-0.60325-0.73025v-4.0428c0-0.52916 0.23284-0.73025 0.60325-0.73025 0.37042 0 0.60325 0.20108 0.60325 0.73025v4.0428c0 0.52916-0.23283 0.73025-0.60325 0.73025z"/>
   <path d="m112.25 16.771c1.143 0 1.7568-0.67733 1.7568-1.8838 0-0.92075-0.30692-1.5134-1.2806-2.3707-0.762-0.66675-1.0054-1.0583-1.0054-1.5981 0-0.508 0.21167-0.70908 0.58208-0.70908 0.37042 0 0.58209 0.20108 0.58209 0.73025v0.381h1.1007v-0.30692c0-1.1853-0.56092-1.8627-1.6933-1.8627s-1.7357 0.67733-1.7357 1.8415c0 0.84666 0.3175 1.4499 1.2912 2.3072 0.762 0.66675 0.99483 1.0583 0.99483 1.6722 0 0.55033-0.23283 0.74083-0.60325 0.74083-0.37041 0-0.60324-0.1905-0.60324-0.71966v-0.508h-1.1007v0.42333c0 1.1853 0.5715 1.8627 1.7145 1.8627z"/>
   <path d="m114.67 16.665h3.175v-1.0583h-2.0108v-2.2754h1.5981v-1.0583h-1.5981v-1.9579h2.0108v-1.0583h-3.175z"/>
   <path d="m120.21 16.665h3.0797v-1.0583h-1.9156v-6.35h-1.1642z"/>
   <path d="m123.85 16.665h1.1642v-7.4083h-1.1642z"/>
   <path d="m125.88 16.665h1.8309c1.1642 0 1.7674-0.61383 1.7674-1.7568v-0.635c0-0.78316-0.24341-1.3335-0.86783-1.5452v-0.02117c0.51859-0.21167 0.75142-0.68791 0.75142-1.4499v-0.29633c0-1.143-0.51858-1.7039-1.7251-1.7039h-1.7568zm1.1642-4.3921v-1.9579h0.56091c0.41275 0 0.59267 0.23283 0.59267 0.762v0.41275c0 0.59266-0.26459 0.78316-0.6985 0.78316zm0 3.3337v-2.2754h0.51858c0.52916 0 0.75141 0.21167 0.75141 0.89958v0.64558c0 0.55033-0.21166 0.73025-0.60325 0.73025z"/>
   <path d="m130.16 16.665h1.1642v-3.175h0.40216c0.52917 0 0.73025 0.22225 0.73025 0.91016v1.3547c0 0.60325 0.0423 0.71966 0.10583 0.91016h1.1853c-0.11642-0.27517-0.127-0.53975-0.127-0.89958v-1.3017c0-0.83608-0.1905-1.3864-0.77258-1.5663v-0.02117c0.51858-0.21167 0.762-0.6985 0.762-1.4605v-0.45508c0-1.143-0.51858-1.7039-1.7251-1.7039h-1.7251zm1.1642-4.2333v-2.1167h0.52916c0.41275 0 0.59267 0.23283 0.59267 0.762v0.5715c0 0.59266-0.26459 0.78316-0.6985 0.78316z"/>
   <path d="m134.11 16.665h1.0795l0.21167-1.4499h1.3229v-0.02117l0.21167 1.4711h1.1642l-1.2065-7.4083h-1.5769zm1.4288-2.4553 0.508-3.6618h0.0212l0.51858 3.6618z"/>
   <path d="m138.67 16.665h1.1642v-3.175h0.40217c0.52916 0 0.73025 0.22225 0.73025 0.91016v1.3547c0 0.60325 0.0423 0.71966 0.10583 0.91016h1.1853c-0.11642-0.27517-0.127-0.53975-0.127-0.89958v-1.3017c0-0.83608-0.1905-1.3864-0.77258-1.5663v-0.02117c0.51858-0.21167 0.762-0.6985 0.762-1.4605v-0.45508c0-1.143-0.51859-1.7039-1.7251-1.7039h-1.7251zm1.1642-4.2333v-2.1167h0.52917c0.41275 0 0.59266 0.23283 0.59266 0.762v0.5715c0 0.59266-0.26458 0.78316-0.6985 0.78316z"/>
   <path d="m143.83 16.665h1.1642v-3.1538l1.4076-4.2545h-1.1324l-0.79375 2.7199h-0.0212l-0.79375-2.7199h-1.2382l1.4076 4.2545z"/>
   <path d="m62.614 30.361h1.1642v-3.2279h1.5028v-1.0583h-1.5028v-2.0637h1.9156v-1.0583h-3.0797z"/>
   <path d="m67.937 30.466c1.143 0 1.7674-0.67733 1.7674-1.8627v-3.8947c0-1.1853-0.62442-1.8627-1.7674-1.8627s-1.7674 0.67733-1.7674 1.8627v3.8947c0 1.1853 0.62442 1.8627 1.7674 1.8627zm0-1.0583c-0.37042 0-0.60325-0.20108-0.60325-0.73025v-4.0428c0-0.52916 0.23283-0.73025 0.60325-0.73025 0.37042 0 0.60325 0.20108 0.60325 0.73025v4.0428c0 0.52916-0.23283 0.73025-0.60325 0.73025z"/>
   <path d="m70.488 30.361h1.1642v-3.175h0.40217c0.52916 0 0.73025 0.22225 0.73025 0.91016v1.3547c0 0.60325 0.04233 0.71966 0.10583 0.91016h1.1853c-0.11642-0.27517-0.127-0.53975-0.127-0.89958v-1.3017c0-0.83608-0.1905-1.3864-0.77258-1.5663v-0.02117c0.51858-0.21167 0.762-0.6985 0.762-1.4605v-0.45508c0-1.143-0.51858-1.7039-1.7251-1.7039h-1.7251zm1.1642-4.2333v-2.1167h0.52916c0.41275 0 0.59266 0.23283 0.59266 0.762v0.5715c0 0.59266-0.26458 0.78316-0.6985 0.78316z"/>
   <path d="m77.96 30.466c1.143 0 1.7568-0.67733 1.7568-1.8838 0-0.92075-0.30692-1.5134-1.2806-2.3707-0.762-0.66675-1.0054-1.0583-1.0054-1.5981 0-0.508 0.21167-0.70908 0.58208-0.70908 0.37042 0 0.58208 0.20108 0.58208 0.73025v0.381h1.1007v-0.30692c0-1.1853-0.56092-1.8627-1.6933-1.8627s-1.7357 0.67733-1.7357 1.8415c0 0.84666 0.3175 1.4499 1.2912 2.3072 0.762 0.66675 0.99483 1.0583 0.99483 1.6722 0 0.55033-0.23283 0.74083-0.60325 0.74083-0.37042 0-0.60325-0.1905-0.60325-0.71966v-0.508h-1.1007v0.42333c0 1.1853 0.5715 1.8627 1.7145 1.8627z"/>
   <path d="m82.024 30.466c1.1218 0 1.7145-0.67733 1.7145-1.8203v-1.0477h-1.1007v1.1324c0 0.48683-0.23283 0.67733-0.58208 0.67733s-0.58208-0.1905-0.58208-0.67733v-4.1381c0-0.48683 0.23283-0.68791 0.58208-0.68791s0.58208 0.20108 0.58208 0.68791v0.85725h1.1007v-0.78316c0-1.143-0.59266-1.8203-1.7145-1.8203s-1.7145 0.67733-1.7145 1.8203v3.9793c0 1.143 0.59266 1.8203 1.7145 1.8203z"/>
   <path d="m84.13 30.361h1.0795l0.21167-1.4499h1.3229v-0.02117l0.21167 1.4711h1.1642l-1.2065-7.4083h-1.5769zm1.4287-2.4553 0.508-3.6618h0.02117l0.51858 3.6618z"/>
   <path d="m88.68 30.361h1.778c1.1642 0 1.7357-0.64558 1.7357-1.8309v-3.7465c0-1.1853-0.5715-1.8309-1.7357-1.8309h-1.778zm1.1642-1.0583v-5.2916h0.59266c0.37042 0 0.59266 0.1905 0.59266 0.71966v3.8523c0 0.52916-0.22225 0.71966-0.59266 0.71966z"/>
   <path d="m92.649 30.361h1.0795l0.21167-1.4499h1.3229v-0.02117l0.21167 1.4711h1.1642l-1.2065-7.4083h-1.5769zm1.4287-2.4553 0.508-3.6618h0.02117l0.51858 3.6618z"/>
   <path d="m100.41 30.466c1.143 0 1.7568-0.67733 1.7568-1.8838 0-0.92075-0.30692-1.5134-1.2806-2.3707-0.762-0.66675-1.0054-1.0583-1.0054-1.5981 0-0.508 0.21167-0.70908 0.58209-0.70908 0.37041 0 0.58208 0.20108 0.58208 0.73025v0.381h1.1007v-0.30692c0-1.1853-0.56091-1.8627-1.6933-1.8627-1.1324 0-1.7357 0.67733-1.7357 1.8415 0 0.84666 0.3175 1.4499 1.2912 2.3072 0.762 0.66675 0.99483 1.0583 0.99483 1.6722 0 0.55033-0.23283 0.74083-0.60324 0.74083-0.37042 0-0.60325-0.1905-0.60325-0.71966v-0.508h-1.1007v0.42333c0 1.1853 0.5715 1.8627 1.7145 1.8627z"/>
   <path d="m103.84 30.361h1.1642v-3.1538l1.4076-4.2545h-1.1324l-0.79375 2.7199h-0.0212l-0.79375-2.7199h-1.2382l1.4076 4.2545z"/>
   <path d="m108.28 30.466c1.143 0 1.7568-0.67733 1.7568-1.8838 0-0.92075-0.30692-1.5134-1.2806-2.3707-0.762-0.66675-1.0054-1.0583-1.0054-1.5981 0-0.508 0.21166-0.70908 0.58208-0.70908 0.37041 0 0.58208 0.20108 0.58208 0.73025v0.381h1.1007v-0.30692c0-1.1853-0.56091-1.8627-1.6933-1.8627-1.1324 0-1.7357 0.67733-1.7357 1.8415 0 0.84666 0.3175 1.4499 1.2912 2.3072 0.762 0.66675 0.99484 1.0583 0.99484 1.6722 0 0.55033-0.23284 0.74083-0.60325 0.74083-0.37042 0-0.60325-0.1905-0.60325-0.71966v-0.508h-1.1007v0.42333c0 1.1853 0.57149 1.8627 1.7145 1.8627z"/>
   <path d="m111.61 30.361h1.1642v-6.35h1.2171v-1.0583h-3.5983v1.0583h1.2171z"/>
   <path d="m114.56 30.361h3.175v-1.0583h-2.0108v-2.2754h1.5981v-1.0583h-1.5981v-1.9579h2.0108v-1.0583h-3.175z"/>
   <path d="m118.4 30.361h1.016v-5.6091h0.0212l0.84666 5.6091h0.97367l0.84666-5.6091h0.0212v5.6091h1.1007v-7.4083h-1.6616l-0.74083 5.3022h-0.0212l-0.74083-5.3022h-1.6616z"/>
   <path d="m125.61 30.466c1.143 0 1.7568-0.67733 1.7568-1.8838 0-0.92075-0.30692-1.5134-1.2806-2.3707-0.762-0.66675-1.0054-1.0583-1.0054-1.5981 0-0.508 0.21166-0.70908 0.58208-0.70908 0.37041 0 0.58208 0.20108 0.58208 0.73025v0.381h1.1007v-0.30692c0-1.1853-0.56091-1.8627-1.6933-1.8627-1.1324 0-1.7357 0.67733-1.7357 1.8415 0 0.84666 0.3175 1.4499 1.2912 2.3072 0.76199 0.66675 0.99483 1.0583 0.99483 1.6722 0 0.55033-0.23284 0.74083-0.60325 0.74083-0.37042 0-0.60325-0.1905-0.60325-0.71966v-0.508h-1.1007v0.42333c0 1.1853 0.57149 1.8627 1.7145 1.8627z"/>
  </g>
 </g>
 <g transform="matrix(.8021 0 0 .8021 16.232 10.248)">
  <g transform="matrix(.60103 0 0 .60103 46.107 22.211)">
   <g transform="matrix(.18686 0 0 .18686 31.869 15.747)" style="fill:#162d50;stroke-width:.99053" aria-label="Celso Automação">
    <path d="m29.19 169.51q-6.7712 0-6.7712-6.7712v-15.67q0-6.7712 6.7712-6.7712h5.9974q6.7712 0 6.7712 6.7712v2.1281l-3.6758 1.7412h-0.19346v-3.8693q0-3.2889-2.9019-3.2889h-5.9974q-2.9019 0-2.9019 3.2889v15.67q0 3.2889 2.9019 3.2889h5.9974q2.9019 0 2.9019-3.2889v-2.1281l3.6758-1.7412h0.19346v3.8693q0 6.7712-6.7712 6.7712z" style="fill:#162d50"/>
    <path d="m54.534 169.51q-5.8039 0-5.8039-5.8039v-9.6731q0-5.8039 5.8039-5.8039h4.4496q5.8039 0 5.8039 5.8039v1.0254l-12.13 9.383q0.27085 1.5864 1.8766 1.5864h4.4496q1.9346 0 1.9346-2.3216v-1.0254l3.6758-1.7412h0.19346v2.7665q0 5.8039-5.8039 5.8039zm-1.9346-9.1121 8.2996-6.6938q-0.11608-1.9927-1.9153-1.9927h-4.4496q-1.9346 0-1.9346 2.3216z" style="fill:#162d50"/>
    <path d="m71.559 170.28v-29.019l3.6758-1.7412h0.19346v29.019l-3.6758 1.7412z" style="fill:#162d50"/>
    <path d="m87.423 169.51q-5.8039 0-5.8039-5.8039v-0.69647l3.6758-1.7412h0.19346v2.4376q0 2.3216 1.9346 2.3216h4.4496q1.9346 0 1.9346-2.3216v-1.5284q0-2.3216-1.9346-2.3216h-3.6371q-5.8039 0-5.8039-5.8232 0-5.8039 5.8039-5.8039h2.2635q5.8039 0 5.8039 4.6818l-3.6758 1.7412h-0.19346v-0.61908q0-2.3216-1.9346-2.3216h-2.2635q-1.9346 0-1.9346 2.3216 0 2.3409 1.9346 2.3409h3.6371q5.8039 0 5.8039 5.8039v1.5284q0 5.8039-5.8039 5.8039z" style="fill:#162d50"/>
    <path d="m108.7 166.02h4.4496q1.9346 0 1.9346-2.3216v-9.6731q0-2.3216-1.9346-2.3216h-4.4496q-1.9346 0-1.9346 2.3216v9.6731q0 2.3216 1.9346 2.3216zm0 3.4823q-5.8039 0-5.8039-5.8039v-9.6731q0-5.8039 5.8039-5.8039h4.4496q5.8039 0 5.8039 5.8039v9.6731q0 5.8039-5.8039 5.8039z" style="fill:#162d50"/>
    <path d="m141.21 170.28v-23.216q0-6.7712 6.7712-6.7712h5.9974q6.7712 0 6.7712 6.7712v21.474l-3.6758 1.7412h-0.19346v-13.62h-11.801v11.879l-3.6758 1.7412zm3.8693-17.141h11.801v-6.0747q0-3.2889-2.902-3.2889h-5.9974q-2.9019 0-2.9019 3.2889z" style="fill:#162d50"/>
    <path d="m173.32 169.51q-5.8039 0-5.8039-5.8039v-14.51l3.6758-1.7412h0.19346v16.251q0 2.3216 1.9346 2.3216h4.4496q1.9346 0 1.9346-2.3216v-14.51l3.6758-1.7412h0.19347v16.251q0 5.8039-5.8039 5.8039z" style="fill:#162d50"/>
    <path d="m191.93 170.28v-18.534h-4.972v-0.19346l1.567-3.3276h3.405v-6.9647l3.6758-1.7412h0.19347v8.7058h4.972v0.19346l-1.567 3.3276h-3.4049v16.793l-3.6758 1.7412z" style="fill:#162d50"/>
    <path d="m209.96 166.02h4.4496q1.9346 0 1.9346-2.3216v-9.6731q0-2.3216-1.9346-2.3216h-4.4496q-1.9346 0-1.9346 2.3216v9.6731q0 2.3216 1.9346 2.3216zm0 3.4823q-5.8039 0-5.8039-5.8039v-9.6731q0-5.8039 5.8039-5.8039h4.4496q5.8039 0 5.8039 5.8039v9.6731q0 5.8039-5.8039 5.8039z" style="fill:#162d50"/>
    <path d="m226.02 170.28v-16.251q0-5.8039 5.8039-5.8039h4.4496q2.6698 0 3.8693 1.4316 1.2768-1.4316 3.8692-1.4316h4.4496q5.8039 0 5.8039 5.8039v14.51l-3.6758 1.7412h-0.19346v-16.251q0-2.3216-1.9346-2.3216h-4.4496q-1.9346 0-1.9346 2.3216v14.51l-3.6758 1.7412h-0.19346v-16.251q0-2.3216-1.9346-2.3216h-4.4496q-1.9346 0-1.9346 2.3216v14.51l-3.6758 1.7412z" style="fill:#162d50"/>
    <path d="m264.91 166.02h4.0627q1.9346 0 1.9346-2.3216v-2.6504q0-2.3216-1.9346-2.3216h-4.0627q-1.9346 0-1.9346 2.3216v2.6504q0 2.3216 1.9346 2.3216zm0 3.4823q-5.8039 0-5.8039-5.8039v-2.6504q0-5.8039 5.8039-5.8039h4.0627q1.006 0 1.9346 0.58039v-1.7992q0-2.3216-1.9346-2.3216h-6.926v-0.19346l1.5477-3.2889h5.3783q5.8039 0 5.8039 5.8039v14.51l-3.6758 1.7412h-0.19346v-1.3542q-0.73516 0.58039-1.9346 0.58039z" style="fill:#162d50"/>
    <path d="m286.38 169.51q-5.8039 0-5.8039-5.8039v-9.6731q0-5.8039 5.8039-5.8039h4.4496q5.8039 0 5.8039 5.8039v1.0254l-3.6758 1.7412h-0.19346v-2.7665q0-2.3216-1.9346-2.3216h-4.4496q-1.9346 0-1.9346 2.3216v9.6731q0 2.3216 1.9346 2.3216h4.4496q1.9346 0 1.9346-2.3216v-1.0254l3.6758-1.7412h0.19346v2.7665q0 5.8039-5.8039 5.8039h-1.006q1.5477 1.6444 1.5477 3.9853 0 2.6504-2.1088 4.7205h-0.19346l-3.6758-1.7412q2.5924-1.6831 2.5924-4.024 0-1.2768-1.0447-2.9406z" style="fill:#162d50"/>
    <path d="m307.27 166.02h4.0627q1.9346 0 1.9346-2.3216v-2.6504q0-2.3216-1.9346-2.3216h-4.0627q-1.9346 0-1.9346 2.3216v2.6504q0 2.3216 1.9346 2.3216zm0 3.4823q-5.8039 0-5.8039-5.8039v-2.6504q0-5.8039 5.8039-5.8039h4.0627q1.006 0 1.9346 0.58039v-1.7992q0-2.3216-1.9346-2.3216h-6.926v-0.19346l1.5477-3.2889h5.3783q5.8039 0 5.8039 5.8039v14.51l-3.6758 1.7412h-0.19346v-1.3542q-0.73516 0.58039-1.9346 0.58039zm-1.509-23.835q0-5.533 2.7278-5.533 1.2382 0 2.6504 1.3542 0.98666 0.94797 1.451 0.94797 0.65777 0 0.65777-1.3929l2.1281-0.90928h0.11608q0 5.533-2.7278 5.533-1.2382 0-2.6504-1.3542-0.98666-0.94797-1.451-0.94797-0.65777 0-0.65777 1.3929l-2.1281 0.90928z" style="fill:#162d50"/>
    <path d="m328.75 166.02h4.4496q1.9346 0 1.9346-2.3216v-9.6731q0-2.3216-1.9346-2.3216h-4.4496q-1.9346 0-1.9346 2.3216v9.6731q0 2.3216 1.9346 2.3216zm0 3.4823q-5.8039 0-5.8039-5.8039v-9.6731q0-5.8039 5.8039-5.8039h4.4496q5.8039 0 5.8039 5.8039v9.6731q0 5.8039-5.8039 5.8039z" style="fill:#162d50"/>
   </g>
   <g transform="matrix(.10353 0 0 .10353 10.474 38.614)" style="fill:#162d50">
    <g style="fill:#162d50;stroke-width:.46087" aria-label="C.A">
     <path d="m157.12 53.348 4.0811 4.0811h12.243v4.0811h4.0811v-6.1217l-2.0406-2.0406zm0 2.8568v11.427l2.0406 2.0406h18.365v-4.0811h-16.325v-5.3055z" style="fill:#162d50"/>
     <path d="m178.67 69.673h4.0811v-4.0811h-4.0811z" style="fill:#162d50"/>
     <path d="m183.89 53.348v4.0811h16.325v2.0406l2.0406 2.0406h-14.284v-4.0811l-4.0811 4.0811v8.1623h4.0811v-4.0811h12.243v4.0811h4.0811v-14.284l-2.0406-2.0406z" style="fill:#162d50"/>
    </g>
    <path transform="scale(.26458)" d="m605.88 97.547-5.1524 8.9258h10.305l5.1543-8.9258zm17.178 0-8.5879 14.877h-17.18l-62.084 107.54 7.5254 13.037 0.85937 1.4883-7.2266 12.52 60.926 105.53h17.18l8.5879 14.877h121.45l8.5898-14.877h17.18l60.723-105.18-8.5879-14.877 8.5898-14.877-60.725-105.18h-17.18l-8.5879-14.877zm128.32 0 5.1523 8.9258h10.307l-5.1523-8.9258zm-131.76 23.803h128.32l64.16 111.13-64.16 111.13h-128.32l-64.158-111.13zm214.81 102.2-5.1543 8.9258 5.1543 8.9258 5.1523-8.9258-3.4356-5.9512zm-302.67 2.3574-3.791 6.5684 4.9492 8.5742 3.793-6.5684zm68.959 132.58 5.1524 8.9258h10.307l-5.1543-8.9258zm155.8 0-5.1543 8.9258h10.309l5.1523-8.9258z" style="-inkscape-stroke:none;color:#000000;fill:#162d50;paint-order:markers fill stroke"/>
    <path d="m200.17 20.751-2.142 3.7099 2.142 3.7104h4.284l2.1425-3.7104-2.1425-3.7099z" style="fill:#162d50;paint-order:markers fill stroke"/>
    <path d="m157.38 20.751-2.142 3.7099 2.142 3.7104h4.284l2.1425-3.7104-2.1425-3.7099z" style="fill:#162d50;paint-order:markers fill stroke"/>
    <path d="m135.58 58.331-2.142 3.7099 2.142 3.7104h4.284l2.1425-3.7104-2.1425-3.7099z" style="fill:#162d50;paint-order:markers fill stroke"/>
    <path d="m157.38 94.85-2.142 3.7099 2.142 3.7104h4.284l2.1425-3.7104-2.1425-3.7099z" style="fill:#162d50;paint-order:markers fill stroke"/>
    <path d="m200.17 94.85-2.142 3.7099 2.142 3.7104h4.284l2.1425-3.7104-2.1425-3.7099z" style="fill:#162d50;paint-order:markers fill stroke"/>
    <path d="m221.56 57.8-2.142 3.7099 2.142 3.7104h4.284l2.1425-3.7104-2.1425-3.7099z" style="fill:#162d50;paint-order:markers fill stroke"/>
   </g>
  </g>
  <g style="fill:#162d50;stroke-width:.091856" aria-label="DEVELOPED BY">
   <path d="m74.119 44.878h0.61727c0.40417 0 0.60258-0.22413 0.60258-0.63564v-1.3007c0-0.41152-0.19841-0.63564-0.60258-0.63564h-0.61727zm0.40417-0.36742v-1.8371h0.20576c0.1286 0 0.20576 0.06614 0.20576 0.24985v1.3374c0 0.18371-0.07716 0.24985-0.20576 0.24985z"/>
   <path d="m75.611 44.878h1.1023v-0.36742h-0.6981v-0.78996h0.55481v-0.36742h-0.55481v-0.67974h0.6981v-0.36742h-1.1023z"/>
   <path d="m77.228 44.878h0.53644l0.38947-2.572h-0.3711l-0.26455 1.9951h-0.0073l-0.26459-1.9951h-0.40784z"/>
   <path d="m78.348 44.878h1.1023v-0.36742h-0.69811v-0.78996h0.55481v-0.36742h-0.55481v-0.67974h0.69811v-0.36742h-1.1023z"/>
   <path d="m79.682 44.878h1.0692v-0.36742h-0.66504v-2.2045h-0.40417z"/>
   <path d="m81.516 44.915c0.39682 0 0.6136-0.23515 0.6136-0.64667v-1.3521c0-0.41152-0.21678-0.64667-0.6136-0.64667s-0.6136 0.23515-0.6136 0.64667v1.3521c0 0.41152 0.21678 0.64667 0.6136 0.64667zm0-0.36742c-0.1286 0-0.20943-0.06981-0.20943-0.25352v-1.4036c0-0.18371 0.08083-0.25352 0.20943-0.25352 0.1286 0 0.20943 0.06981 0.20943 0.25352v1.4036c0 0.18371-0.08083 0.25352-0.20943 0.25352z"/>
   <path d="m82.401 44.878h0.40417v-1.0472h0.19106c0.40417 0 0.60258-0.22413 0.60258-0.63564v-0.25352c0-0.41152-0.19841-0.63564-0.60258-0.63564h-0.59523zm0.40417-1.4146v-0.78996h0.19106c0.1286 0 0.19841 0.05879 0.19841 0.2425v0.30496c0 0.18371-0.06981 0.2425-0.19841 0.2425z"/>
   <path d="m83.819 44.878h1.1023v-0.36742h-0.69811v-0.78996h0.55481v-0.36742h-0.55481v-0.67974h0.69811v-0.36742h-1.1023z"/>
   <path d="m85.153 44.878h0.61727c0.40417 0 0.60258-0.22413 0.60258-0.63564v-1.3007c0-0.41152-0.19841-0.63564-0.60258-0.63564h-0.61727zm0.40417-0.36742v-1.8371h0.20576c0.1286 0 0.20576 0.06614 0.20576 0.24985v1.3374c0 0.18371-0.07716 0.24985-0.20576 0.24985z"/>
   <path d="m87.233 44.878h0.63564c0.40417 0 0.6136-0.21311 0.6136-0.60992v-0.22045c0-0.27189-0.08451-0.46295-0.30129-0.53644v-0.0073c0.18004-0.07348 0.26087-0.23882 0.26087-0.50337v-0.10288c0-0.39682-0.18004-0.59155-0.5989-0.59155h-0.60992zm0.40417-1.5248v-0.67974h0.19474c0.1433 0 0.20576 0.08083 0.20576 0.26454v0.1433c0 0.20576-0.09186 0.27189-0.2425 0.27189zm0 1.1574v-0.78996h0.18004c0.18371 0 0.26087 0.07348 0.26087 0.31231v0.22413c0 0.19106-0.07348 0.25352-0.20943 0.25352z"/>
   <path d="m89.029 44.878h0.40417v-1.0949l0.48867-1.477h-0.39314l-0.27557 0.94428h-0.0073l-0.27557-0.94428h-0.42989l0.48867 1.477z"/>
  </g>
 </g>
</svg>
